# xmcd CD database file
#
# Track frame offsets:
#	150
#	20622
#	38252
#
# Disc length: 779 seconds
#
# Revision: 0
# Processed by: cddbd v1.5.1PL0 Copyright (c) Steve Scherf et al.
# Submitted via: CDex 1.51
#
DISCID=15030903
DTITLE=今野　登茂子 - 麦わら帽子 (Single)
DYEAR=1997
DGENRE=Pop
TTITLE0=麦わら帽子
TTITLE1=My Dear
TTITLE2=麦わら帽子（オリジナル・カラオケ）
EXTD=YEAR: 1997
EXTT0=
EXTT1=
EXTT2=
PLAYORDER=
